<svg xmlns="http://www.w3.org/2000/svg" version="1.1" xmlns:xlink="http://www.w3.org/1999/xlink" xmlns:svgjs="http://svgjs.dev/svgjs" width="1440" height="560" preserveAspectRatio="none" viewBox="0 0 1440 560">
    <g mask="url(&quot;#SvgjsMask1010&quot;)" fill="none">
        <path d="M-106.35 359.14L-106.35 359.14" stroke="rgba(241, 241, 241, 1)" stroke-width="1.5"></path>
        <path d="M-106.35 359.14L-46.1 557.6" stroke="rgba(241, 241, 241, 1)" stroke-width="1.5"></path>
        <path d="M-106.35 359.14L106.07 357.24" stroke="rgba(241, 241, 241, 1)" stroke-width="1.5"></path>
        <path d="M-106.35 359.14L108.51 495.49" stroke="rgba(241, 241, 241, 1)" stroke-width="1.5"></path>
        <path d="M-106.35 359.14L225.93 360.05" stroke="rgba(241, 241, 241, 1)" stroke-width="1.5"></path>
        <path d="M-106.35 359.14L-55.84 695.6" stroke="rgba(241, 241, 241, 1)" stroke-width="1.5"></path>
        <path d="M-46.1 557.6L-46.1 557.6" stroke="rgba(241, 241, 241, 1)" stroke-width="1.5"></path>
        <path d="M-46.1 557.6L-55.84 695.6" stroke="rgba(241, 241, 241, 1)" stroke-width="1.5"></path>
        <path d="M-46.1 557.6L108.51 495.49" stroke="rgba(241, 241, 241, 1)" stroke-width="1.5"></path>
        <path d="M-46.1 557.6L108.06 654.76" stroke="rgba(241, 241, 241, 1)" stroke-width="1.5"></path>
        <path d="M-55.84 695.6L-55.84 695.6" stroke="rgba(241, 241, 241, 1)" stroke-width="1.5"></path>
        <path d="M-55.84 695.6L108.06 654.76" stroke="rgba(241, 241, 241, 1)" stroke-width="1.5"></path>
        <path d="M-55.84 695.6L192.96 696.02" stroke="rgba(241, 241, 241, 1)" stroke-width="1.5"></path>
        <path d="M106.07 357.24L106.07 357.24" stroke="rgba(241, 241, 241, 1)" stroke-width="1.5"></path>
        <path d="M106.07 357.24L225.93 360.05" stroke="rgba(241, 241, 241, 1)" stroke-width="1.5"></path>
        <path d="M106.07 357.24L108.51 495.49" stroke="rgba(241, 241, 241, 1)" stroke-width="1.5"></path>
        <path d="M106.07 357.24L239.27 520.32" stroke="rgba(241, 241, 241, 1)" stroke-width="1.5"></path>
        <path d="M106.07 357.24L337.87 372.34" stroke="rgba(241, 241, 241, 1)" stroke-width="1.5"></path>
        <path d="M108.51 495.49L108.51 495.49" stroke="rgba(241, 241, 241, 1)" stroke-width="1.5"></path>
        <path d="M108.51 495.49L239.27 520.32" stroke="rgba(241, 241, 241, 1)" stroke-width="1.5"></path>
        <path d="M108.51 495.49L108.06 654.76" stroke="rgba(241, 241, 241, 1)" stroke-width="1.5"></path>
        <path d="M108.51 495.49L225.93 360.05" stroke="rgba(241, 241, 241, 1)" stroke-width="1.5"></path>
        <path d="M108.06 654.76L108.06 654.76" stroke="rgba(241, 241, 241, 1)" stroke-width="1.5"></path>
        <path d="M108.06 654.76L192.96 696.02" stroke="rgba(241, 241, 241, 1)" stroke-width="1.5"></path>
        <path d="M225.93 360.05L225.93 360.05" stroke="rgba(241, 241, 241, 1)" stroke-width="1.5"></path>
        <path d="M225.93 360.05L337.87 372.34" stroke="rgba(241, 241, 241, 1)" stroke-width="1.5"></path>
        <path d="M239.27 520.32L239.27 520.32" stroke="rgba(241, 241, 241, 1)" stroke-width="1.5"></path>
        <path d="M239.27 520.32L376.88 507.92" stroke="rgba(241, 241, 241, 1)" stroke-width="1.5"></path>
        <path d="M239.27 520.32L225.93 360.05" stroke="rgba(241, 241, 241, 1)" stroke-width="1.5"></path>
        <path d="M239.27 520.32L337.87 372.34" stroke="rgba(241, 241, 241, 1)" stroke-width="1.5"></path>
        <path d="M239.27 520.32L192.96 696.02" stroke="rgba(241, 241, 241, 1)" stroke-width="1.5"></path>
        <path d="M192.96 696.02L192.96 696.02" stroke="rgba(241, 241, 241, 1)" stroke-width="1.5"></path>
        <path d="M337.87 372.34L337.87 372.34" stroke="rgba(241, 241, 241, 1)" stroke-width="1.5"></path>
        <path d="M337.87 372.34L376.88 507.92" stroke="rgba(241, 241, 241, 1)" stroke-width="1.5"></path>
        <path d="M337.87 372.34L532.68 393.29" stroke="rgba(241, 241, 241, 1)" stroke-width="1.5"></path>
        <path d="M376.88 507.92L376.88 507.92" stroke="rgba(241, 241, 241, 1)" stroke-width="1.5"></path>
        <path d="M376.88 507.92L542.39 496.32" stroke="rgba(241, 241, 241, 1)" stroke-width="1.5"></path>
        <path d="M376.88 507.92L376.9 675.77" stroke="rgba(241, 241, 241, 1)" stroke-width="1.5"></path>
        <path d="M376.88 507.92L532.68 393.29" stroke="rgba(241, 241, 241, 1)" stroke-width="1.5"></path>
        <path d="M376.88 507.92L518.9 663" stroke="rgba(241, 241, 241, 1)" stroke-width="1.5"></path>
        <path d="M376.9 675.77L376.9 675.77" stroke="rgba(241, 241, 241, 1)" stroke-width="1.5"></path>
        <path d="M376.9 675.77L518.9 663" stroke="rgba(241, 241, 241, 1)" stroke-width="1.5"></path>
        <path d="M376.9 675.77L192.96 696.02" stroke="rgba(241, 241, 241, 1)" stroke-width="1.5"></path>
        <path d="M376.9 675.77L239.27 520.32" stroke="rgba(241, 241, 241, 1)" stroke-width="1.5"></path>
        <path d="M532.68 393.29L532.68 393.29" stroke="rgba(241, 241, 241, 1)" stroke-width="1.5"></path>
        <path d="M532.68 393.29L542.39 496.32" stroke="rgba(241, 241, 241, 1)" stroke-width="1.5"></path>
        <path d="M532.68 393.29L669.27 411.55" stroke="rgba(241, 241, 241, 1)" stroke-width="1.5"></path>
        <path d="M532.68 393.29L709.35 198.15" stroke="rgba(241, 241, 241, 1)" stroke-width="1.5"></path>
        <path d="M532.68 393.29L518.9 663" stroke="rgba(241, 241, 241, 1)" stroke-width="1.5"></path>
        <path d="M542.39 496.32L542.39 496.32" stroke="rgba(241, 241, 241, 1)" stroke-width="1.5"></path>
        <path d="M542.39 496.32L669.27 411.55" stroke="rgba(241, 241, 241, 1)" stroke-width="1.5"></path>
        <path d="M518.9 663L518.9 663" stroke="rgba(241, 241, 241, 1)" stroke-width="1.5"></path>
        <path d="M518.9 663L542.39 496.32" stroke="rgba(241, 241, 241, 1)" stroke-width="1.5"></path>
        <path d="M518.9 663L706.26 691.6" stroke="rgba(241, 241, 241, 1)" stroke-width="1.5"></path>
        <path d="M709.35 198.15L709.35 198.15" stroke="rgba(241, 241, 241, 1)" stroke-width="1.5"></path>
        <path d="M709.35 198.15L829.77 259.95" stroke="rgba(241, 241, 241, 1)" stroke-width="1.5"></path>
        <path d="M709.35 198.15L856.7 50.89" stroke="rgba(241, 241, 241, 1)" stroke-width="1.5"></path>
        <path d="M709.35 198.15L669.27 411.55" stroke="rgba(241, 241, 241, 1)" stroke-width="1.5"></path>
        <path d="M709.35 198.15L984.33 225.06" stroke="rgba(241, 241, 241, 1)" stroke-width="1.5"></path>
        <path d="M669.27 411.55L669.27 411.55" stroke="rgba(241, 241, 241, 1)" stroke-width="1.5"></path>
        <path d="M706.26 691.6L706.26 691.6" stroke="rgba(241, 241, 241, 1)" stroke-width="1.5"></path>
        <path d="M706.26 691.6L861.63 705.37" stroke="rgba(241, 241, 241, 1)" stroke-width="1.5"></path>
        <path d="M706.26 691.6L826.05 508.39" stroke="rgba(241, 241, 241, 1)" stroke-width="1.5"></path>
        <path d="M706.26 691.6L542.39 496.32" stroke="rgba(241, 241, 241, 1)" stroke-width="1.5"></path>
        <path d="M856.7 50.89L856.7 50.89" stroke="rgba(241, 241, 241, 1)" stroke-width="1.5"></path>
        <path d="M856.7 50.89L1006.12 48.76" stroke="rgba(241, 241, 241, 1)" stroke-width="1.5"></path>
        <path d="M856.7 50.89L976.25 -39.76" stroke="rgba(241, 241, 241, 1)" stroke-width="1.5"></path>
        <path d="M856.7 50.89L829.77 259.95" stroke="rgba(241, 241, 241, 1)" stroke-width="1.5"></path>
        <path d="M856.7 50.89L984.33 225.06" stroke="rgba(241, 241, 241, 1)" stroke-width="1.5"></path>
        <path d="M856.7 50.89L1137.93 96.91" stroke="rgba(241, 241, 241, 1)" stroke-width="1.5"></path>
        <path d="M829.77 259.95L829.77 259.95" stroke="rgba(241, 241, 241, 1)" stroke-width="1.5"></path>
        <path d="M829.77 259.95L984.33 225.06" stroke="rgba(241, 241, 241, 1)" stroke-width="1.5"></path>
        <path d="M829.77 259.95L1010.79 344.17" stroke="rgba(241, 241, 241, 1)" stroke-width="1.5"></path>
        <path d="M826.05 508.39L826.05 508.39" stroke="rgba(241, 241, 241, 1)" stroke-width="1.5"></path>
        <path d="M826.05 508.39L966.83 506.32" stroke="rgba(241, 241, 241, 1)" stroke-width="1.5"></path>
        <path d="M826.05 508.39L669.27 411.55" stroke="rgba(241, 241, 241, 1)" stroke-width="1.5"></path>
        <path d="M826.05 508.39L861.63 705.37" stroke="rgba(241, 241, 241, 1)" stroke-width="1.5"></path>
        <path d="M861.63 705.37L861.63 705.37" stroke="rgba(241, 241, 241, 1)" stroke-width="1.5"></path>
        <path d="M861.63 705.37L969.37 711.25" stroke="rgba(241, 241, 241, 1)" stroke-width="1.5"></path>
        <path d="M861.63 705.37L966.83 506.32" stroke="rgba(241, 241, 241, 1)" stroke-width="1.5"></path>
        <path d="M861.63 705.37L1097.38 656.14" stroke="rgba(241, 241, 241, 1)" stroke-width="1.5"></path>
        <path d="M861.63 705.37L518.9 663" stroke="rgba(241, 241, 241, 1)" stroke-width="1.5"></path>
        <path d="M976.25 -39.76L976.25 -39.76" stroke="rgba(241, 241, 241, 1)" stroke-width="1.5"></path>
        <path d="M976.25 -39.76L1006.12 48.76" stroke="rgba(241, 241, 241, 1)" stroke-width="1.5"></path>
        <path d="M976.25 -39.76L1137.98 -67.52" stroke="rgba(241, 241, 241, 1)" stroke-width="1.5"></path>
        <path d="M976.25 -39.76L1137.93 96.91" stroke="rgba(241, 241, 241, 1)" stroke-width="1.5"></path>
        <path d="M976.25 -39.76L984.33 225.06" stroke="rgba(241, 241, 241, 1)" stroke-width="1.5"></path>
        <path d="M976.25 -39.76L1255.89 -53.42" stroke="rgba(241, 241, 241, 1)" stroke-width="1.5"></path>
        <path d="M1006.12 48.76L1006.12 48.76" stroke="rgba(241, 241, 241, 1)" stroke-width="1.5"></path>
        <path d="M984.33 225.06L984.33 225.06" stroke="rgba(241, 241, 241, 1)" stroke-width="1.5"></path>
        <path d="M984.33 225.06L1010.79 344.17" stroke="rgba(241, 241, 241, 1)" stroke-width="1.5"></path>
        <path d="M984.33 225.06L1132.77 256.08" stroke="rgba(241, 241, 241, 1)" stroke-width="1.5"></path>
        <path d="M1010.79 344.17L1010.79 344.17" stroke="rgba(241, 241, 241, 1)" stroke-width="1.5"></path>
        <path d="M1010.79 344.17L1154.32 374.11" stroke="rgba(241, 241, 241, 1)" stroke-width="1.5"></path>
        <path d="M966.83 506.32L966.83 506.32" stroke="rgba(241, 241, 241, 1)" stroke-width="1.5"></path>
        <path d="M966.83 506.32L1010.79 344.17" stroke="rgba(241, 241, 241, 1)" stroke-width="1.5"></path>
        <path d="M969.37 711.25L969.37 711.25" stroke="rgba(241, 241, 241, 1)" stroke-width="1.5"></path>
        <path d="M969.37 711.25L1097.38 656.14" stroke="rgba(241, 241, 241, 1)" stroke-width="1.5"></path>
        <path d="M969.37 711.25L966.83 506.32" stroke="rgba(241, 241, 241, 1)" stroke-width="1.5"></path>
        <path d="M969.37 711.25L826.05 508.39" stroke="rgba(241, 241, 241, 1)" stroke-width="1.5"></path>
        <path d="M969.37 711.25L706.26 691.6" stroke="rgba(241, 241, 241, 1)" stroke-width="1.5"></path>
        <path d="M1137.98 -67.52L1137.98 -67.52" stroke="rgba(241, 241, 241, 1)" stroke-width="1.5"></path>
        <path d="M1137.98 -67.52L1255.89 -53.42" stroke="rgba(241, 241, 241, 1)" stroke-width="1.5"></path>
        <path d="M1137.93 96.91L1137.93 96.91" stroke="rgba(241, 241, 241, 1)" stroke-width="1.5"></path>
        <path d="M1137.93 96.91L1006.12 48.76" stroke="rgba(241, 241, 241, 1)" stroke-width="1.5"></path>
        <path d="M1137.93 96.91L1132.77 256.08" stroke="rgba(241, 241, 241, 1)" stroke-width="1.5"></path>
        <path d="M1137.93 96.91L1301.5 87.44" stroke="rgba(241, 241, 241, 1)" stroke-width="1.5"></path>
        <path d="M1137.93 96.91L1137.98 -67.52" stroke="rgba(241, 241, 241, 1)" stroke-width="1.5"></path>
        <path d="M1137.93 96.91L1255.89 -53.42" stroke="rgba(241, 241, 241, 1)" stroke-width="1.5"></path>
        <path d="M1132.77 256.08L1132.77 256.08" stroke="rgba(241, 241, 241, 1)" stroke-width="1.5"></path>
        <path d="M1132.77 256.08L1154.32 374.11" stroke="rgba(241, 241, 241, 1)" stroke-width="1.5"></path>
        <path d="M1132.77 256.08L1010.79 344.17" stroke="rgba(241, 241, 241, 1)" stroke-width="1.5"></path>
        <path d="M1154.32 374.11L1154.32 374.11" stroke="rgba(241, 241, 241, 1)" stroke-width="1.5"></path>
        <path d="M1154.32 374.11L1155.13 491.56" stroke="rgba(241, 241, 241, 1)" stroke-width="1.5"></path>
        <path d="M1155.13 491.56L1155.13 491.56" stroke="rgba(241, 241, 241, 1)" stroke-width="1.5"></path>
        <path d="M1155.13 491.56L1248.54 547.1" stroke="rgba(241, 241, 241, 1)" stroke-width="1.5"></path>
        <path d="M1155.13 491.56L1097.38 656.14" stroke="rgba(241, 241, 241, 1)" stroke-width="1.5"></path>
        <path d="M1097.38 656.14L1097.38 656.14" stroke="rgba(241, 241, 241, 1)" stroke-width="1.5"></path>
        <path d="M1097.38 656.14L1248.54 547.1" stroke="rgba(241, 241, 241, 1)" stroke-width="1.5"></path>
        <path d="M1255.89 -53.42L1255.89 -53.42" stroke="rgba(241, 241, 241, 1)" stroke-width="1.5"></path>
        <path d="M1255.89 -53.42L1301.5 87.44" stroke="rgba(241, 241, 241, 1)" stroke-width="1.5"></path>
        <path d="M1255.89 -53.42L1412.58 -61.06" stroke="rgba(241, 241, 241, 1)" stroke-width="1.5"></path>
        <path d="M1255.89 -53.42L1410.86 54.57" stroke="rgba(241, 241, 241, 1)" stroke-width="1.5"></path>
        <path d="M1301.5 87.44L1301.5 87.44" stroke="rgba(241, 241, 241, 1)" stroke-width="1.5"></path>
        <path d="M1301.5 87.44L1410.86 54.57" stroke="rgba(241, 241, 241, 1)" stroke-width="1.5"></path>
        <path d="M1301.5 87.44L1404.24 191.96" stroke="rgba(241, 241, 241, 1)" stroke-width="1.5"></path>
        <path d="M1301.5 87.44L1307.59 243.22" stroke="rgba(241, 241, 241, 1)" stroke-width="1.5"></path>
        <path d="M1307.59 243.22L1307.59 243.22" stroke="rgba(241, 241, 241, 1)" stroke-width="1.5"></path>
        <path d="M1307.59 243.22L1404.24 191.96" stroke="rgba(241, 241, 241, 1)" stroke-width="1.5"></path>
        <path d="M1307.59 243.22L1132.77 256.08" stroke="rgba(241, 241, 241, 1)" stroke-width="1.5"></path>
        <path d="M1248.54 547.1L1248.54 547.1" stroke="rgba(241, 241, 241, 1)" stroke-width="1.5"></path>
        <path d="M1248.54 547.1L1154.32 374.11" stroke="rgba(241, 241, 241, 1)" stroke-width="1.5"></path>
        <path d="M1248.54 547.1L1459.25 562.44" stroke="rgba(241, 241, 241, 1)" stroke-width="1.5"></path>
        <path d="M1248.54 547.1L1429.91 410.83" stroke="rgba(241, 241, 241, 1)" stroke-width="1.5"></path>
        <path d="M1412.58 -61.06L1412.58 -61.06" stroke="rgba(241, 241, 241, 1)" stroke-width="1.5"></path>
        <path d="M1412.58 -61.06L1410.86 54.57" stroke="rgba(241, 241, 241, 1)" stroke-width="1.5"></path>
        <path d="M1412.58 -61.06L1585.89 -90.22" stroke="rgba(241, 241, 241, 1)" stroke-width="1.5"></path>
        <path d="M1412.58 -61.06L1301.5 87.44" stroke="rgba(241, 241, 241, 1)" stroke-width="1.5"></path>
        <path d="M1412.58 -61.06L1547.49 78.06" stroke="rgba(241, 241, 241, 1)" stroke-width="1.5"></path>
        <path d="M1412.58 -61.06L1404.24 191.96" stroke="rgba(241, 241, 241, 1)" stroke-width="1.5"></path>
        <path d="M1410.86 54.57L1410.86 54.57" stroke="rgba(241, 241, 241, 1)" stroke-width="1.5"></path>
        <path d="M1410.86 54.57L1404.24 191.96" stroke="rgba(241, 241, 241, 1)" stroke-width="1.5"></path>
        <path d="M1404.24 191.96L1404.24 191.96" stroke="rgba(241, 241, 241, 1)" stroke-width="1.5"></path>
        <path d="M1429.91 410.83L1429.91 410.83" stroke="rgba(241, 241, 241, 1)" stroke-width="1.5"></path>
        <path d="M1429.91 410.83L1544.03 405.09" stroke="rgba(241, 241, 241, 1)" stroke-width="1.5"></path>
        <path d="M1429.91 410.83L1459.25 562.44" stroke="rgba(241, 241, 241, 1)" stroke-width="1.5"></path>
        <path d="M1429.91 410.83L1307.59 243.22" stroke="rgba(241, 241, 241, 1)" stroke-width="1.5"></path>
        <path d="M1429.91 410.83L1601.92 539.72" stroke="rgba(241, 241, 241, 1)" stroke-width="1.5"></path>
        <path d="M1429.91 410.83L1404.24 191.96" stroke="rgba(241, 241, 241, 1)" stroke-width="1.5"></path>
        <path d="M1459.25 562.44L1459.25 562.44" stroke="rgba(241, 241, 241, 1)" stroke-width="1.5"></path>
        <path d="M1459.25 562.44L1435.66 692.69" stroke="rgba(241, 241, 241, 1)" stroke-width="1.5"></path>
        <path d="M1459.25 562.44L1601.92 539.72" stroke="rgba(241, 241, 241, 1)" stroke-width="1.5"></path>
        <path d="M1459.25 562.44L1544.03 405.09" stroke="rgba(241, 241, 241, 1)" stroke-width="1.5"></path>
        <path d="M1459.25 562.44L1607.98 683.59" stroke="rgba(241, 241, 241, 1)" stroke-width="1.5"></path>
        <path d="M1435.66 692.69L1435.66 692.69" stroke="rgba(241, 241, 241, 1)" stroke-width="1.5"></path>
        <path d="M1435.66 692.69L1607.98 683.59" stroke="rgba(241, 241, 241, 1)" stroke-width="1.5"></path>
        <path d="M1435.66 692.69L1601.92 539.72" stroke="rgba(241, 241, 241, 1)" stroke-width="1.5"></path>
        <path d="M1585.89 -90.22L1585.89 -90.22" stroke="rgba(241, 241, 241, 1)" stroke-width="1.5"></path>
        <path d="M1585.89 -90.22L1547.49 78.06" stroke="rgba(241, 241, 241, 1)" stroke-width="1.5"></path>
        <path d="M1585.89 -90.22L1410.86 54.57" stroke="rgba(241, 241, 241, 1)" stroke-width="1.5"></path>
        <path d="M1585.89 -90.22L1607.13 236.11" stroke="rgba(241, 241, 241, 1)" stroke-width="1.5"></path>
        <path d="M1585.89 -90.22L1255.89 -53.42" stroke="rgba(241, 241, 241, 1)" stroke-width="1.5"></path>
        <path d="M1585.89 -90.22L1301.5 87.44" stroke="rgba(241, 241, 241, 1)" stroke-width="1.5"></path>
        <path d="M1547.49 78.06L1547.49 78.06" stroke="rgba(241, 241, 241, 1)" stroke-width="1.5"></path>
        <path d="M1547.49 78.06L1410.86 54.57" stroke="rgba(241, 241, 241, 1)" stroke-width="1.5"></path>
        <path d="M1547.49 78.06L1607.13 236.11" stroke="rgba(241, 241, 241, 1)" stroke-width="1.5"></path>
        <path d="M1607.13 236.11L1607.13 236.11" stroke="rgba(241, 241, 241, 1)" stroke-width="1.5"></path>
        <path d="M1607.13 236.11L1544.03 405.09" stroke="rgba(241, 241, 241, 1)" stroke-width="1.5"></path>
        <path d="M1607.13 236.11L1404.24 191.96" stroke="rgba(241, 241, 241, 1)" stroke-width="1.5"></path>
        <path d="M1544.03 405.09L1544.03 405.09" stroke="rgba(241, 241, 241, 1)" stroke-width="1.5"></path>
        <path d="M1544.03 405.09L1601.92 539.72" stroke="rgba(241, 241, 241, 1)" stroke-width="1.5"></path>
        <path d="M1601.92 539.72L1601.92 539.72" stroke="rgba(241, 241, 241, 1)" stroke-width="1.5"></path>
        <path d="M1601.92 539.72L1607.98 683.59" stroke="rgba(241, 241, 241, 1)" stroke-width="1.5"></path>
        <path d="M1607.98 683.59L1607.98 683.59" stroke="rgba(241, 241, 241, 1)" stroke-width="1.5"></path>
        <circle r="5" cx="-106.35" cy="359.14" fill="rgba(241, 241, 241, 1)"></circle>
        <circle r="5" cx="-46.1" cy="557.6" fill="rgba(241, 241, 241, 1)"></circle>
        <circle r="5" cx="-55.84" cy="695.6" fill="rgba(241, 241, 241, 1)"></circle>
        <circle r="5" cx="106.07" cy="357.24" fill="rgba(241, 241, 241, 1)"></circle>
        <circle r="5" cx="108.51" cy="495.49" fill="rgba(241, 241, 241, 1)"></circle>
        <circle r="5" cx="108.06" cy="654.76" fill="rgba(241, 241, 241, 1)"></circle>
        <circle r="5" cx="225.93" cy="360.05" fill="rgba(241, 241, 241, 1)"></circle>
        <circle r="5" cx="239.27" cy="520.32" fill="rgba(241, 241, 241, 1)"></circle>
        <circle r="5" cx="192.96" cy="696.02" fill="rgba(241, 241, 241, 1)"></circle>
        <circle r="5" cx="337.87" cy="372.34" fill="rgba(241, 241, 241, 1)"></circle>
        <circle r="5" cx="376.88" cy="507.92" fill="rgba(241, 241, 241, 1)"></circle>
        <circle r="5" cx="376.9" cy="675.77" fill="rgba(241, 241, 241, 1)"></circle>
        <circle r="5" cx="532.68" cy="393.29" fill="rgba(241, 241, 241, 1)"></circle>
        <circle r="5" cx="542.39" cy="496.32" fill="rgba(241, 241, 241, 1)"></circle>
        <circle r="5" cx="518.9" cy="663" fill="rgba(241, 241, 241, 1)"></circle>
        <circle r="5" cx="709.35" cy="198.15" fill="rgba(241, 241, 241, 1)"></circle>
        <circle r="5" cx="669.27" cy="411.55" fill="rgba(241, 241, 241, 1)"></circle>
        <circle r="5" cx="706.26" cy="691.6" fill="rgba(241, 241, 241, 1)"></circle>
        <circle r="5" cx="856.7" cy="50.89" fill="rgba(241, 241, 241, 1)"></circle>
        <circle r="5" cx="829.77" cy="259.95" fill="rgba(241, 241, 241, 1)"></circle>
        <circle r="5" cx="826.05" cy="508.39" fill="rgba(241, 241, 241, 1)"></circle>
        <circle r="5" cx="861.63" cy="705.37" fill="rgba(241, 241, 241, 1)"></circle>
        <circle r="5" cx="976.25" cy="-39.76" fill="rgba(241, 241, 241, 1)"></circle>
        <circle r="5" cx="1006.12" cy="48.76" fill="rgba(241, 241, 241, 1)"></circle>
        <circle r="5" cx="984.33" cy="225.06" fill="rgba(241, 241, 241, 1)"></circle>
        <circle r="5" cx="1010.79" cy="344.17" fill="rgba(241, 241, 241, 1)"></circle>
        <circle r="5" cx="966.83" cy="506.32" fill="rgba(241, 241, 241, 1)"></circle>
        <circle r="5" cx="969.37" cy="711.25" fill="rgba(241, 241, 241, 1)"></circle>
        <circle r="5" cx="1137.98" cy="-67.52" fill="rgba(241, 241, 241, 1)"></circle>
        <circle r="5" cx="1137.93" cy="96.91" fill="rgba(241, 241, 241, 1)"></circle>
        <circle r="5" cx="1132.77" cy="256.08" fill="rgba(241, 241, 241, 1)"></circle>
        <circle r="5" cx="1154.32" cy="374.11" fill="rgba(241, 241, 241, 1)"></circle>
        <circle r="5" cx="1155.13" cy="491.56" fill="rgba(241, 241, 241, 1)"></circle>
        <circle r="5" cx="1097.38" cy="656.14" fill="rgba(241, 241, 241, 1)"></circle>
        <circle r="5" cx="1255.89" cy="-53.42" fill="rgba(241, 241, 241, 1)"></circle>
        <circle r="5" cx="1301.5" cy="87.44" fill="rgba(241, 241, 241, 1)"></circle>
        <circle r="5" cx="1307.59" cy="243.22" fill="rgba(241, 241, 241, 1)"></circle>
        <circle r="5" cx="1248.54" cy="547.1" fill="rgba(241, 241, 241, 1)"></circle>
        <circle r="5" cx="1412.58" cy="-61.06" fill="rgba(241, 241, 241, 1)"></circle>
        <circle r="5" cx="1410.86" cy="54.57" fill="rgba(241, 241, 241, 1)"></circle>
        <circle r="5" cx="1404.24" cy="191.96" fill="rgba(241, 241, 241, 1)"></circle>
        <circle r="5" cx="1429.91" cy="410.83" fill="rgba(241, 241, 241, 1)"></circle>
        <circle r="5" cx="1459.25" cy="562.44" fill="rgba(241, 241, 241, 1)"></circle>
        <circle r="5" cx="1435.66" cy="692.69" fill="rgba(241, 241, 241, 1)"></circle>
        <circle r="5" cx="1585.89" cy="-90.22" fill="rgba(241, 241, 241, 1)"></circle>
        <circle r="5" cx="1547.49" cy="78.06" fill="rgba(241, 241, 241, 1)"></circle>
        <circle r="5" cx="1607.13" cy="236.11" fill="rgba(241, 241, 241, 1)"></circle>
        <circle r="5" cx="1544.03" cy="405.09" fill="rgba(241, 241, 241, 1)"></circle>
        <circle r="5" cx="1601.92" cy="539.72" fill="rgba(241, 241, 241, 1)"></circle>
        <circle r="5" cx="1607.98" cy="683.59" fill="rgba(241, 241, 241, 1)"></circle>
        <path d="M644.78 540.95L644.78 540.95" stroke="hsl(0, 0%, 100%)" stroke-width="1.5"></path>
        <path d="M644.78 540.95L668.48 658.75" stroke="hsl(0, 0%, 100%)" stroke-width="1.5"></path>
        <path d="M644.78 540.95L499.87 523.95" stroke="hsl(0, 0%, 100%)" stroke-width="1.5"></path>
        <path d="M644.78 540.95L553.84 407.79" stroke="hsl(0, 0%, 100%)" stroke-width="1.5"></path>
        <path d="M644.78 540.95L515.74 647.31" stroke="hsl(0, 0%, 100%)" stroke-width="1.5"></path>
        <path d="M644.78 540.95L824.82 539.62" stroke="hsl(0, 0%, 100%)" stroke-width="1.5"></path>
        <path d="M644.78 540.95L857.91 643.18" stroke="hsl(0, 0%, 100%)" stroke-width="1.5"></path>
        <path d="M940.59 401.01L940.59 401.01" stroke="hsl(0, 0%, 100%)" stroke-width="1.5"></path>
        <path d="M940.59 401.01L854.39 373.92" stroke="hsl(0, 0%, 100%)" stroke-width="1.5"></path>
        <path d="M940.59 401.01L968.72 512.5" stroke="hsl(0, 0%, 100%)" stroke-width="1.5"></path>
        <path d="M940.59 401.01L824.82 539.62" stroke="hsl(0, 0%, 100%)" stroke-width="1.5"></path>
        <path d="M940.59 401.01L1006.49 226.67" stroke="hsl(0, 0%, 100%)" stroke-width="1.5"></path>
        <path d="M940.59 401.01L1146.75 342.43" stroke="hsl(0, 0%, 100%)" stroke-width="1.5"></path>
        <path d="M940.59 401.01L1130.16 536.22" stroke="hsl(0, 0%, 100%)" stroke-width="1.5"></path>
        <path d="M1130.16 536.22L1130.16 536.22" stroke="hsl(0, 0%, 100%)" stroke-width="1.5"></path>
        <path d="M1130.16 536.22L1089.57 648.1" stroke="hsl(0, 0%, 100%)" stroke-width="1.5"></path>
        <path d="M1089.57 648.1L1089.57 648.1" stroke="hsl(0, 0%, 100%)" stroke-width="1.5"></path>
        <path d="M1089.57 648.1L939.75 682.25" stroke="hsl(0, 0%, 100%)" stroke-width="1.5"></path>
        <path d="M1089.57 648.1L1260.8 644.77" stroke="hsl(0, 0%, 100%)" stroke-width="1.5"></path>
        <path d="M1089.57 648.1L968.72 512.5" stroke="hsl(0, 0%, 100%)" stroke-width="1.5"></path>
        <path d="M1089.57 648.1L1246.39 497.4" stroke="hsl(0, 0%, 100%)" stroke-width="1.5"></path>
        <path d="M1603.18 220.83L1603.18 220.83" stroke="hsl(0, 0%, 100%)" stroke-width="1.5"></path>
        <path d="M1603.18 220.83L1596.18 91.32" stroke="hsl(0, 0%, 100%)" stroke-width="1.5"></path>
        <path d="M1603.18 220.83L1565.58 383.02" stroke="hsl(0, 0%, 100%)" stroke-width="1.5"></path>
        <path d="M1603.18 220.83L1417.31 203.88" stroke="hsl(0, 0%, 100%)" stroke-width="1.5"></path>
        <path d="M1603.18 220.83L1455.41 369.87" stroke="hsl(0, 0%, 100%)" stroke-width="1.5"></path>
        <path d="M1603.18 220.83L1434.96 68.34" stroke="hsl(0, 0%, 100%)" stroke-width="1.5"></path>
        <path d="M1603.18 220.83L1552.45 -71.2" stroke="hsl(0, 0%, 100%)" stroke-width="1.5"></path>
        <path d="M-79.47 501.23L-79.47 501.23" stroke="hsl(0, 0%, 100%)" stroke-width="1.5"></path>
        <path d="M-79.47 501.23L-68.22 647.26" stroke="hsl(0, 0%, 100%)" stroke-width="1.5"></path>
        <path d="M-79.47 501.23L111.36 549.33" stroke="hsl(0, 0%, 100%)" stroke-width="1.5"></path>
        <path d="M-79.47 501.23L81.12 704.16" stroke="hsl(0, 0%, 100%)" stroke-width="1.5"></path>
        <path d="M-68.22 647.26L-68.22 647.26" stroke="hsl(0, 0%, 100%)" stroke-width="1.5"></path>
        <path d="M-68.22 647.26L81.12 704.16" stroke="hsl(0, 0%, 100%)" stroke-width="1.5"></path>
        <path d="M-68.22 647.26L111.36 549.33" stroke="hsl(0, 0%, 100%)" stroke-width="1.5"></path>
        <path d="M111.36 549.33L111.36 549.33" stroke="hsl(0, 0%, 100%)" stroke-width="1.5"></path>
        <path d="M111.36 549.33L215.9 556.81" stroke="hsl(0, 0%, 100%)" stroke-width="1.5"></path>
        <path d="M111.36 549.33L81.12 704.16" stroke="hsl(0, 0%, 100%)" stroke-width="1.5"></path>
        <path d="M111.36 549.33L250.93 645.42" stroke="hsl(0, 0%, 100%)" stroke-width="1.5"></path>
        <path d="M81.12 704.16L81.12 704.16" stroke="hsl(0, 0%, 100%)" stroke-width="1.5"></path>
        <path d="M81.12 704.16L250.93 645.42" stroke="hsl(0, 0%, 100%)" stroke-width="1.5"></path>
        <path d="M81.12 704.16L215.9 556.81" stroke="hsl(0, 0%, 100%)" stroke-width="1.5"></path>
        <path d="M81.12 704.16L342.41 528.99" stroke="hsl(0, 0%, 100%)" stroke-width="1.5"></path>
        <path d="M215.9 556.81L215.9 556.81" stroke="hsl(0, 0%, 100%)" stroke-width="1.5"></path>
        <path d="M215.9 556.81L250.93 645.42" stroke="hsl(0, 0%, 100%)" stroke-width="1.5"></path>
        <path d="M215.9 556.81L342.41 528.99" stroke="hsl(0, 0%, 100%)" stroke-width="1.5"></path>
        <path d="M215.9 556.81L408.54 677.78" stroke="hsl(0, 0%, 100%)" stroke-width="1.5"></path>
        <path d="M215.9 556.81L499.87 523.95" stroke="hsl(0, 0%, 100%)" stroke-width="1.5"></path>
        <path d="M250.93 645.42L250.93 645.42" stroke="hsl(0, 0%, 100%)" stroke-width="1.5"></path>
        <path d="M250.93 645.42L342.41 528.99" stroke="hsl(0, 0%, 100%)" stroke-width="1.5"></path>
        <path d="M250.93 645.42L408.54 677.78" stroke="hsl(0, 0%, 100%)" stroke-width="1.5"></path>
        <path d="M342.41 528.99L342.41 528.99" stroke="hsl(0, 0%, 100%)" stroke-width="1.5"></path>
        <path d="M342.41 528.99L499.87 523.95" stroke="hsl(0, 0%, 100%)" stroke-width="1.5"></path>
        <path d="M408.54 677.78L408.54 677.78" stroke="hsl(0, 0%, 100%)" stroke-width="1.5"></path>
        <path d="M408.54 677.78L515.74 647.31" stroke="hsl(0, 0%, 100%)" stroke-width="1.5"></path>
        <path d="M408.54 677.78L342.41 528.99" stroke="hsl(0, 0%, 100%)" stroke-width="1.5"></path>
        <path d="M408.54 677.78L499.87 523.95" stroke="hsl(0, 0%, 100%)" stroke-width="1.5"></path>
        <path d="M408.54 677.78L668.48 658.75" stroke="hsl(0, 0%, 100%)" stroke-width="1.5"></path>
        <path d="M553.84 407.79L553.84 407.79" stroke="hsl(0, 0%, 100%)" stroke-width="1.5"></path>
        <path d="M553.84 407.79L499.87 523.95" stroke="hsl(0, 0%, 100%)" stroke-width="1.5"></path>
        <path d="M553.84 407.79L515.74 647.31" stroke="hsl(0, 0%, 100%)" stroke-width="1.5"></path>
        <path d="M553.84 407.79L342.41 528.99" stroke="hsl(0, 0%, 100%)" stroke-width="1.5"></path>
        <path d="M553.84 407.79L668.48 658.75" stroke="hsl(0, 0%, 100%)" stroke-width="1.5"></path>
        <path d="M553.84 407.79L824.82 539.62" stroke="hsl(0, 0%, 100%)" stroke-width="1.5"></path>
        <path d="M499.87 523.95L499.87 523.95" stroke="hsl(0, 0%, 100%)" stroke-width="1.5"></path>
        <path d="M499.87 523.95L515.74 647.31" stroke="hsl(0, 0%, 100%)" stroke-width="1.5"></path>
        <path d="M515.74 647.31L515.74 647.31" stroke="hsl(0, 0%, 100%)" stroke-width="1.5"></path>
        <path d="M515.74 647.31L668.48 658.75" stroke="hsl(0, 0%, 100%)" stroke-width="1.5"></path>
        <path d="M668.48 658.75L668.48 658.75" stroke="hsl(0, 0%, 100%)" stroke-width="1.5"></path>
        <path d="M668.48 658.75L857.91 643.18" stroke="hsl(0, 0%, 100%)" stroke-width="1.5"></path>
        <path d="M668.48 658.75L824.82 539.62" stroke="hsl(0, 0%, 100%)" stroke-width="1.5"></path>
        <path d="M668.48 658.75L499.87 523.95" stroke="hsl(0, 0%, 100%)" stroke-width="1.5"></path>
        <path d="M854.39 373.92L854.39 373.92" stroke="hsl(0, 0%, 100%)" stroke-width="1.5"></path>
        <path d="M854.39 373.92L824.82 539.62" stroke="hsl(0, 0%, 100%)" stroke-width="1.5"></path>
        <path d="M854.39 373.92L968.72 512.5" stroke="hsl(0, 0%, 100%)" stroke-width="1.5"></path>
        <path d="M824.82 539.62L824.82 539.62" stroke="hsl(0, 0%, 100%)" stroke-width="1.5"></path>
        <path d="M824.82 539.62L857.91 643.18" stroke="hsl(0, 0%, 100%)" stroke-width="1.5"></path>
        <path d="M824.82 539.62L968.72 512.5" stroke="hsl(0, 0%, 100%)" stroke-width="1.5"></path>
        <path d="M824.82 539.62L939.75 682.25" stroke="hsl(0, 0%, 100%)" stroke-width="1.5"></path>
        <path d="M857.91 643.18L857.91 643.18" stroke="hsl(0, 0%, 100%)" stroke-width="1.5"></path>
        <path d="M857.91 643.18L939.75 682.25" stroke="hsl(0, 0%, 100%)" stroke-width="1.5"></path>
        <path d="M857.91 643.18L968.72 512.5" stroke="hsl(0, 0%, 100%)" stroke-width="1.5"></path>
        <path d="M1006.49 226.67L1006.49 226.67" stroke="hsl(0, 0%, 100%)" stroke-width="1.5"></path>
        <path d="M1006.49 226.67L1093.95 206.41" stroke="hsl(0, 0%, 100%)" stroke-width="1.5"></path>
        <path d="M1006.49 226.67L1146.75 342.43" stroke="hsl(0, 0%, 100%)" stroke-width="1.5"></path>
        <path d="M968.72 512.5L968.72 512.5" stroke="hsl(0, 0%, 100%)" stroke-width="1.5"></path>
        <path d="M939.75 682.25L939.75 682.25" stroke="hsl(0, 0%, 100%)" stroke-width="1.5"></path>
        <path d="M1093.95 206.41L1093.95 206.41" stroke="hsl(0, 0%, 100%)" stroke-width="1.5"></path>
        <path d="M1093.95 206.41L1146.75 342.43" stroke="hsl(0, 0%, 100%)" stroke-width="1.5"></path>
        <path d="M1093.95 206.41L940.59 401.01" stroke="hsl(0, 0%, 100%)" stroke-width="1.5"></path>
        <path d="M1093.95 206.41L1288.46 42.02" stroke="hsl(0, 0%, 100%)" stroke-width="1.5"></path>
        <path d="M1146.75 342.43L1146.75 342.43" stroke="hsl(0, 0%, 100%)" stroke-width="1.5"></path>
        <path d="M1146.75 342.43L1308.21 390.46" stroke="hsl(0, 0%, 100%)" stroke-width="1.5"></path>
        <path d="M1298.58 -63.41L1298.58 -63.41" stroke="hsl(0, 0%, 100%)" stroke-width="1.5"></path>
        <path d="M1298.58 -63.41L1288.46 42.02" stroke="hsl(0, 0%, 100%)" stroke-width="1.5"></path>
        <path d="M1298.58 -63.41L1447.62 -79.03" stroke="hsl(0, 0%, 100%)" stroke-width="1.5"></path>
        <path d="M1298.58 -63.41L1434.96 68.34" stroke="hsl(0, 0%, 100%)" stroke-width="1.5"></path>
        <path d="M1298.58 -63.41L1552.45 -71.2" stroke="hsl(0, 0%, 100%)" stroke-width="1.5"></path>
        <path d="M1288.46 42.02L1288.46 42.02" stroke="hsl(0, 0%, 100%)" stroke-width="1.5"></path>
        <path d="M1288.46 42.02L1434.96 68.34" stroke="hsl(0, 0%, 100%)" stroke-width="1.5"></path>
        <path d="M1288.46 42.02L1447.62 -79.03" stroke="hsl(0, 0%, 100%)" stroke-width="1.5"></path>
        <path d="M1308.21 390.46L1308.21 390.46" stroke="hsl(0, 0%, 100%)" stroke-width="1.5"></path>
        <path d="M1308.21 390.46L1246.39 497.4" stroke="hsl(0, 0%, 100%)" stroke-width="1.5"></path>
        <path d="M1308.21 390.46L1408.13 497.93" stroke="hsl(0, 0%, 100%)" stroke-width="1.5"></path>
        <path d="M1308.21 390.46L1455.41 369.87" stroke="hsl(0, 0%, 100%)" stroke-width="1.5"></path>
        <path d="M1246.39 497.4L1246.39 497.4" stroke="hsl(0, 0%, 100%)" stroke-width="1.5"></path>
        <path d="M1246.39 497.4L1130.16 536.22" stroke="hsl(0, 0%, 100%)" stroke-width="1.5"></path>
        <path d="M1260.8 644.77L1260.8 644.77" stroke="hsl(0, 0%, 100%)" stroke-width="1.5"></path>
        <path d="M1260.8 644.77L1246.39 497.4" stroke="hsl(0, 0%, 100%)" stroke-width="1.5"></path>
        <path d="M1260.8 644.77L1405.98 691.26" stroke="hsl(0, 0%, 100%)" stroke-width="1.5"></path>
        <path d="M1260.8 644.77L1130.16 536.22" stroke="hsl(0, 0%, 100%)" stroke-width="1.5"></path>
        <path d="M1447.62 -79.03L1447.62 -79.03" stroke="hsl(0, 0%, 100%)" stroke-width="1.5"></path>
        <path d="M1447.62 -79.03L1552.45 -71.2" stroke="hsl(0, 0%, 100%)" stroke-width="1.5"></path>
        <path d="M1447.62 -79.03L1434.96 68.34" stroke="hsl(0, 0%, 100%)" stroke-width="1.5"></path>
        <path d="M1434.96 68.34L1434.96 68.34" stroke="hsl(0, 0%, 100%)" stroke-width="1.5"></path>
        <path d="M1434.96 68.34L1417.31 203.88" stroke="hsl(0, 0%, 100%)" stroke-width="1.5"></path>
        <path d="M1434.96 68.34L1596.18 91.32" stroke="hsl(0, 0%, 100%)" stroke-width="1.5"></path>
        <path d="M1434.96 68.34L1552.45 -71.2" stroke="hsl(0, 0%, 100%)" stroke-width="1.5"></path>
        <path d="M1417.31 203.88L1417.31 203.88" stroke="hsl(0, 0%, 100%)" stroke-width="1.5"></path>
        <path d="M1417.31 203.88L1455.41 369.87" stroke="hsl(0, 0%, 100%)" stroke-width="1.5"></path>
        <path d="M1417.31 203.88L1288.46 42.02" stroke="hsl(0, 0%, 100%)" stroke-width="1.5"></path>
        <path d="M1417.31 203.88L1596.18 91.32" stroke="hsl(0, 0%, 100%)" stroke-width="1.5"></path>
        <path d="M1417.31 203.88L1308.21 390.46" stroke="hsl(0, 0%, 100%)" stroke-width="1.5"></path>
        <path d="M1455.41 369.87L1455.41 369.87" stroke="hsl(0, 0%, 100%)" stroke-width="1.5"></path>
        <path d="M1455.41 369.87L1565.58 383.02" stroke="hsl(0, 0%, 100%)" stroke-width="1.5"></path>
        <path d="M1455.41 369.87L1408.13 497.93" stroke="hsl(0, 0%, 100%)" stroke-width="1.5"></path>
        <path d="M1455.41 369.87L1558.04 556.68" stroke="hsl(0, 0%, 100%)" stroke-width="1.5"></path>
        <path d="M1408.13 497.93L1408.13 497.93" stroke="hsl(0, 0%, 100%)" stroke-width="1.5"></path>
        <path d="M1408.13 497.93L1558.04 556.68" stroke="hsl(0, 0%, 100%)" stroke-width="1.5"></path>
        <path d="M1408.13 497.93L1246.39 497.4" stroke="hsl(0, 0%, 100%)" stroke-width="1.5"></path>
        <path d="M1405.98 691.26L1405.98 691.26" stroke="hsl(0, 0%, 100%)" stroke-width="1.5"></path>
        <path d="M1552.45 -71.2L1552.45 -71.2" stroke="hsl(0, 0%, 100%)" stroke-width="1.5"></path>
        <path d="M1552.45 -71.2L1596.18 91.32" stroke="hsl(0, 0%, 100%)" stroke-width="1.5"></path>
        <path d="M1596.18 91.32L1596.18 91.32" stroke="hsl(0, 0%, 100%)" stroke-width="1.5"></path>
        <path d="M1596.18 91.32L1447.62 -79.03" stroke="hsl(0, 0%, 100%)" stroke-width="1.5"></path>
        <path d="M1565.58 383.02L1565.58 383.02" stroke="hsl(0, 0%, 100%)" stroke-width="1.5"></path>
        <path d="M1565.58 383.02L1558.04 556.68" stroke="hsl(0, 0%, 100%)" stroke-width="1.5"></path>
        <path d="M1565.58 383.02L1408.13 497.93" stroke="hsl(0, 0%, 100%)" stroke-width="1.5"></path>
        <path d="M1565.58 383.02L1417.31 203.88" stroke="hsl(0, 0%, 100%)" stroke-width="1.5"></path>
        <path d="M1558.04 556.68L1558.04 556.68" stroke="hsl(0, 0%, 100%)" stroke-width="1.5"></path>
        <path d="M1558.04 556.68L1555.35 648.45" stroke="hsl(0, 0%, 100%)" stroke-width="1.5"></path>
        <path d="M1558.04 556.68L1405.98 691.26" stroke="hsl(0, 0%, 100%)" stroke-width="1.5"></path>
        <path d="M1555.35 648.45L1555.35 648.45" stroke="hsl(0, 0%, 100%)" stroke-width="1.5"></path>
        <path d="M1555.35 648.45L1405.98 691.26" stroke="hsl(0, 0%, 100%)" stroke-width="1.5"></path>
        <path d="M1555.35 648.45L1408.13 497.93" stroke="hsl(0, 0%, 100%)" stroke-width="1.5"></path>
        <path d="M1555.35 648.45L1565.58 383.02" stroke="hsl(0, 0%, 100%)" stroke-width="1.5"></path>
        <circle r="25" cx="644.78" cy="540.95" fill="url(&quot;#SvgjsRadialGradient1011&quot;)"></circle>
        <circle r="25" cx="940.59" cy="401.01" fill="url(&quot;#SvgjsRadialGradient1011&quot;)"></circle>
        <circle r="25" cx="1130.16" cy="536.22" fill="url(&quot;#SvgjsRadialGradient1011&quot;)"></circle>
        <circle r="25" cx="1089.57" cy="648.1" fill="url(&quot;#SvgjsRadialGradient1011&quot;)"></circle>
        <circle r="25" cx="1603.18" cy="220.83" fill="url(&quot;#SvgjsRadialGradient1011&quot;)"></circle>
        <circle r="5" cx="-79.47" cy="501.23" fill="#f8f8f8"></circle>
        <circle r="5" cx="-68.22" cy="647.26" fill="#f8f8f8"></circle>
        <circle r="5" cx="111.36" cy="549.33" fill="#f8f8f8"></circle>
        <circle r="5" cx="81.12" cy="704.16" fill="#f8f8f8"></circle>
        <circle r="5" cx="215.9" cy="556.81" fill="#f8f8f8"></circle>
        <circle r="5" cx="250.93" cy="645.42" fill="#f8f8f8"></circle>
        <circle r="5" cx="342.41" cy="528.99" fill="#f8f8f8"></circle>
        <circle r="5" cx="408.54" cy="677.78" fill="#f8f8f8"></circle>
        <circle r="5" cx="553.84" cy="407.79" fill="#f8f8f8"></circle>
        <circle r="5" cx="499.87" cy="523.95" fill="#f8f8f8"></circle>
        <circle r="5" cx="515.74" cy="647.31" fill="#f8f8f8"></circle>
        <circle r="5" cx="668.48" cy="658.75" fill="#f8f8f8"></circle>
        <circle r="5" cx="854.39" cy="373.92" fill="#f8f8f8"></circle>
        <circle r="5" cx="824.82" cy="539.62" fill="#f8f8f8"></circle>
        <circle r="5" cx="857.91" cy="643.18" fill="#f8f8f8"></circle>
        <circle r="5" cx="1006.49" cy="226.67" fill="#f8f8f8"></circle>
        <circle r="5" cx="968.72" cy="512.5" fill="#f8f8f8"></circle>
        <circle r="5" cx="939.75" cy="682.25" fill="#f8f8f8"></circle>
        <circle r="5" cx="1093.95" cy="206.41" fill="#f8f8f8"></circle>
        <circle r="5" cx="1146.75" cy="342.43" fill="#f8f8f8"></circle>
        <circle r="5" cx="1298.58" cy="-63.41" fill="#f8f8f8"></circle>
        <circle r="5" cx="1288.46" cy="42.02" fill="#f8f8f8"></circle>
        <circle r="5" cx="1308.21" cy="390.46" fill="#f8f8f8"></circle>
        <circle r="5" cx="1246.39" cy="497.4" fill="#f8f8f8"></circle>
        <circle r="5" cx="1260.8" cy="644.77" fill="#f8f8f8"></circle>
        <circle r="5" cx="1447.62" cy="-79.03" fill="#f8f8f8"></circle>
        <circle r="5" cx="1434.96" cy="68.34" fill="#f8f8f8"></circle>
        <circle r="5" cx="1417.31" cy="203.88" fill="#f8f8f8"></circle>
        <circle r="5" cx="1455.41" cy="369.87" fill="#f8f8f8"></circle>
        <circle r="5" cx="1408.13" cy="497.93" fill="#f8f8f8"></circle>
        <circle r="5" cx="1405.98" cy="691.26" fill="#f8f8f8"></circle>
        <circle r="5" cx="1552.45" cy="-71.2" fill="#f8f8f8"></circle>
        <circle r="5" cx="1596.18" cy="91.32" fill="#f8f8f8"></circle>
        <circle r="5" cx="1565.58" cy="383.02" fill="#f8f8f8"></circle>
        <circle r="5" cx="1558.04" cy="556.68" fill="#f8f8f8"></circle>
        <circle r="5" cx="1555.35" cy="648.45" fill="#f8f8f8"></circle>
    </g>
    <defs>
        <mask id="SvgjsMask1010">
            <rect width="1440" height="560" fill="#ffffff"></rect>
        </mask>
        <radialGradient id="SvgjsRadialGradient1011">
            <stop stop-color="#ffffff" offset="0.1"></stop>
            <stop stop-color="rgba(241, 241, 241, 1)" offset="0.2"></stop>
            <stop stop-color="rgba(241, 241, 241, 0)" offset="1"></stop>
        </radialGradient>
    </defs>
</svg>